<?xml version="1.0" standalone="no"?>
<!DOCTYPE svg PUBLIC "-//W3C//DTD SVG 20010904//EN"
 "http://www.w3.org/TR/2001/REC-SVG-20010904/DTD/svg10.dtd">
<svg version="1.0" xmlns="http://www.w3.org/2000/svg"
 width="512.000000pt" height="512.000000pt" viewBox="0 0 512.000000 512.000000"
 preserveAspectRatio="xMidYMid meet">
<metadata>
Created by potrace 1.11, written by Peter Selinger 2001-2013
</metadata>
<g transform="translate(0.000000,512.000000) scale(0.100000,-0.100000)"
fill="#000000" stroke="none">
<path d="M1480 4975 c0 -30 0 -57 0 -60 0 -3 3 -4 7 -2 4 1 6 10 5 20 -2 12 4
17 22 17 32 0 34 17 4 22 -13 2 -24 11 -26 21 -3 13 3 17 27 17 17 0 31 5 31
10 0 6 -16 10 -35 10 l-35 0 0 -55z"/>
<path d="M1570 5020 c0 -5 5 -10 11 -10 5 0 7 5 4 10 -3 6 -8 10 -11 10 -2 0
-4 -4 -4 -10z"/>
<path d="M1804 5016 c-3 -7 -4 -35 -2 -62 3 -49 3 -49 41 -52 21 -2 37 1 37 7
0 6 -13 11 -30 11 -23 0 -30 4 -30 20 0 15 7 20 25 20 14 0 25 5 25 10 0 6
-11 10 -25 10 -16 0 -25 6 -25 15 0 10 10 15 30 15 17 0 30 5 30 10 0 16 -70
12 -76 -4z"/>
<path d="M2095 5020 c-3 -5 -1 -10 4 -10 6 0 11 5 11 10 0 6 -2 10 -4 10 -3 0
-8 -4 -11 -10z"/>
<path d="M2370 4965 c0 -37 4 -65 10 -65 6 0 10 11 10 25 0 19 5 25 23 25 27
0 47 17 47 42 0 21 -29 38 -64 38 -25 0 -26 -2 -26 -65z m68 23 c3 -13 -3 -18
-22 -18 -20 0 -26 5 -26 21 0 15 5 20 22 17 13 -2 24 -11 26 -20z"/>
<path d="M2876 5014 c-23 -22 -20 -77 4 -99 17 -15 24 -16 45 -7 14 6 25 16
25 22 0 13 -13 13 -27 -1 -7 -7 -19 -9 -28 -5 -24 9 -17 80 9 84 10 2 22 -2
27 -9 4 -7 11 -10 15 -6 10 10 -16 37 -37 37 -9 0 -25 -7 -33 -16z"/>
<path d="M3066 4970 c1 -33 5 -60 9 -60 4 0 8 27 9 60 0 34 -3 60 -9 60 -6 0
-9 -26 -9 -60z"/>
<path d="M3290 4971 c0 -33 5 -63 10 -66 6 -4 10 18 10 59 0 37 -4 66 -10 66
-6 0 -10 -26 -10 -59z"/>
<path d="M3432 5000 c-7 -12 -8 -21 -2 -25 6 -3 10 -19 10 -35 0 -16 5 -32 11
-35 16 -10 24 4 11 17 -14 14 -16 55 -3 60 5 2 4 11 -3 20 -11 15 -13 15 -24
-2z"/>
<path d="M1570 4944 c0 -27 4 -43 10 -39 6 3 10 24 10 46 0 21 -4 39 -10 39
-5 0 -10 -21 -10 -46z"/>
<path d="M1610 4945 c0 -25 5 -45 10 -45 6 0 10 14 10 31 0 19 7 37 18 45 15
12 14 13 -10 14 -26 0 -28 -2 -28 -45z"/>
<path d="M1671 4968 c-15 -39 13 -74 49 -63 27 9 25 21 -2 20 -32 0 -34 19 -3
23 36 5 29 36 -8 40 -21 3 -29 -2 -36 -20z m49 2 c0 -5 -7 -10 -15 -10 -8 0
-15 5 -15 10 0 6 7 10 15 10 8 0 15 -4 15 -10z"/>
<path d="M1900 4946 c0 -55 17 -62 22 -9 4 49 28 57 28 9 0 -19 5 -38 11 -41
7 -5 9 8 7 37 -3 41 -5 43 -35 46 -33 3 -33 3 -33 -42z"/>
<path d="M2002 4978 c-26 -26 3 -86 35 -74 9 4 13 1 10 -6 -2 -7 -14 -12 -26
-11 -13 2 -20 -1 -16 -7 8 -14 38 -13 53 2 7 7 12 34 12 60 0 46 -1 48 -28 48
-15 0 -33 -5 -40 -12z m46 -31 c2 -19 -1 -27 -13 -27 -19 0 -30 24 -21 46 9
23 31 11 34 -19z"/>
<path d="M2090 4951 c0 -22 5 -43 10 -46 6 -4 10 12 10 39 0 25 -4 46 -10 46
-5 0 -10 -18 -10 -39z"/>
<path d="M2140 4944 c0 -51 16 -51 22 0 5 47 28 45 28 -3 0 -23 5 -41 11 -41
6 0 9 17 7 43 -3 39 -5 42 -35 45 l-33 3 0 -47z"/>
<path d="M2236 4974 c-17 -43 11 -82 48 -68 23 9 20 21 -5 20 -12 -1 -24 5
-26 12 -3 8 6 12 26 12 33 0 39 8 19 28 -17 17 -55 15 -62 -4z m49 -4 c3 -5
-3 -10 -15 -10 -12 0 -18 5 -15 10 3 6 10 10 15 10 5 0 12 -4 15 -10z"/>
<path d="M2482 4948 c3 -41 5 -43 36 -45 32 -1 32 -1 32 43 0 24 -4 44 -10 44
-5 0 -10 -16 -10 -36 0 -28 -3 -35 -17 -32 -13 2 -18 13 -18 36 0 17 -3 32 -8
32 -4 0 -7 -19 -5 -42z"/>
<path d="M2570 4945 c0 -54 18 -60 22 -7 4 53 32 51 37 -3 l5 -40 5 40 c8 53
35 55 39 3 2 -21 8 -38 13 -38 6 0 9 19 7 43 l-3 42 -62 3 -63 2 0 -45z"/>
<path d="M2720 4930 c0 -33 4 -60 10 -60 6 0 10 9 10 20 0 12 5 17 14 14 17
-6 46 22 46 45 0 25 -20 41 -52 41 -28 0 -28 -1 -28 -60z m55 19 c0 -15 -7
-25 -17 -27 -13 -3 -18 3 -18 21 0 13 3 27 7 31 13 12 28 -1 28 -25z"/>
<path d="M2975 4980 c-4 -7 2 -9 19 -4 15 3 26 2 26 -4 0 -5 -11 -13 -25 -16
-16 -4 -25 -13 -25 -26 0 -21 1 -22 43 -24 27 -2 28 0 25 39 -3 35 -6 40 -30
43 -14 2 -29 -2 -33 -8z m45 -45 c0 -8 -7 -15 -15 -15 -16 0 -20 12 -8 23 11
12 23 8 23 -8z"/>
<path d="M3110 4969 c-9 -16 -8 -26 5 -45 18 -28 37 -31 56 -8 11 13 9 14 -13
9 -30 -8 -42 6 -33 35 7 22 31 27 38 8 2 -7 8 -10 12 -6 12 12 -5 28 -30 28
-14 0 -29 -9 -35 -21z"/>
<path d="M3200 4950 c0 -22 3 -41 8 -41 4 -1 19 -2 35 -3 25 -2 27 0 27 41 0
24 -4 43 -10 43 -5 0 -10 -16 -10 -35 0 -24 -5 -35 -15 -35 -10 0 -15 11 -15
35 0 19 -4 35 -10 35 -5 0 -10 -18 -10 -40z"/>
<path d="M3344 4979 c-4 -7 0 -9 14 -5 11 4 23 2 27 -4 3 -5 -2 -10 -13 -10
-11 0 -25 -7 -32 -15 -18 -21 1 -39 40 -41 27 -1 30 2 30 26 0 16 -3 35 -6 44
-7 18 -49 22 -60 5z m46 -39 c0 -12 -28 -25 -36 -17 -9 9 6 27 22 27 8 0 14
-5 14 -10z"/>
<path d="M3491 4976 c-18 -21 -6 -63 20 -71 29 -10 51 13 47 49 -2 25 -8 32
-29 34 -14 2 -31 -4 -38 -12z m48 -14 c12 -23 -2 -47 -23 -39 -24 10 -20 57 5
57 5 0 13 -8 18 -18z"/>
<path d="M3580 4945 c0 -25 5 -45 10 -45 6 0 10 14 10 31 0 19 7 37 18 45 15
12 14 13 -10 14 -26 0 -28 -2 -28 -45z"/>
<path d="M0 4700 l0 -30 2560 0 2560 0 0 30 0 30 -2560 0 -2560 0 0 -30z"/>
<path d="M1587 4493 c-10 -9 -8 -335 1 -351 7 -9 74 -12 303 -10 l294 3 0 180
0 180 -296 3 c-162 1 -298 -1 -302 -5z m390 -115 c-2 -13 -4 -3 -4 22 0 25 2
35 4 23 2 -13 2 -33 0 -45z m-205 30 l12 -23 7 25 c6 22 7 20 8 -12 1 -41 -13
-51 -24 -18 -8 27 -23 25 -28 -2 -3 -14 -5 -9 -6 15 -1 42 12 48 31 15z m83
-18 c0 -16 -6 -26 -18 -28 -19 -4 -32 20 -23 44 9 25 41 13 41 -16z m55 21 c0
-6 -4 -13 -10 -16 -15 -9 -12 -25 5 -25 20 0 39 37 22 43 -6 3 -2 6 11 6 25 1
28 -9 10 -27 -10 -10 -10 -15 2 -22 11 -7 1 -10 -32 -10 -49 0 -57 7 -36 28
10 10 10 15 -2 22 -12 8 -10 10 8 10 12 0 22 -4 22 -9z m125 -2 c11 -16 -5
-25 -16 -9 -8 12 -9 11 -7 -5 2 -11 8 -23 13 -27 6 -4 2 -8 -8 -8 -20 0 -32
23 -23 45 6 17 32 20 41 4z m-323 -131 c19 -11 22 -19 18 -43 -4 -20 -8 -26
-13 -17 -5 6 -5 17 -2 22 11 17 -10 11 -33 -10 -29 -27 -32 -26 -32 13 0 50
16 58 62 35z m78 -20 c0 -9 3 -9 12 0 15 15 38 16 38 1 0 -5 -4 -7 -10 -4 -5
3 -10 4 -10 1 0 -3 15 -13 33 -22 l32 -17 -19 22 c-20 22 -18 23 27 25 22 1
27 -3 27 -22 0 -13 4 -20 10 -17 6 3 10 14 10 24 0 13 9 17 45 18 42 1 65 -10
50 -25 -3 -3 -10 0 -15 8 -8 12 -10 11 -10 -7 0 -12 6 -24 13 -27 6 -3 3 -5
-8 -3 -12 1 -21 11 -23 25 -4 25 -22 20 -22 -6 0 -12 -9 -18 -30 -20 -17 -1
-30 3 -30 9 0 8 -4 8 -12 2 -18 -13 -87 -13 -95 0 -4 7 0 8 12 3 14 -5 16 -4
6 7 -6 8 -22 12 -36 9 -29 -5 -33 -18 -7 -25 16 -4 16 -5 -1 -6 -20 -1 -32 21
-23 44 6 18 36 20 36 3z m323 -9 c-8 -8 -16 -8 -30 0 -16 9 -14 10 12 11 21 0
26 -3 18 -11z"/>
<path d="M1825 4400 c-4 -6 -3 -16 3 -22 6 -6 12 -6 17 2 4 6 3 16 -3 22 -6 6
-12 6 -17 -2z"/>
<path d="M1670 4260 c0 -5 4 -10 9 -10 6 0 13 5 16 10 3 6 -1 10 -9 10 -9 0
-16 -4 -16 -10z"/>
<path d="M1877 4249 c7 -7 15 -10 18 -7 3 3 -2 9 -12 12 -14 6 -15 5 -6 -5z"/>
<path d="M2294 4417 c-2 -7 -3 -56 -2 -108 l3 -94 325 0 325 0 0 105 0 105
-323 3 c-262 2 -323 0 -328 -11z m104 -87 c6 0 13 8 15 18 3 9 5 -1 6 -22 1
-36 0 -38 -12 -21 -14 18 -43 13 -32 -6 4 -5 1 -9 -4 -9 -6 0 -11 17 -11 38 1
33 2 35 14 20 7 -10 18 -18 24 -18z m275 16 c37 -28 6 -76 -39 -59 -23 8 -16
22 9 16 l22 -5 -24 20 c-38 31 -8 58 32 28z m-195 -30 c4 -21 -14 -37 -35 -29
-14 5 -18 35 -6 47 12 12 38 1 41 -18z m38 15 c-18 -7 -19 -8 -1 -14 11 -5 22
-1 30 9 7 10 19 15 29 11 24 -9 20 -27 -6 -28 -21 0 -21 -1 -4 -8 11 -4 15
-10 10 -14 -6 -3 -16 -2 -24 3 -9 5 -20 5 -28 -2 -9 -8 -16 -8 -24 0 -9 9 -7
12 8 12 18 1 18 1 2 11 -25 14 -22 29 5 28 20 0 20 -1 3 -8z m224 0 c0 -6 -5
-13 -11 -17 -8 -4 -7 -9 2 -15 18 -11 6 -21 -14 -13 -13 4 -14 10 -7 24 7 13
6 20 -3 23 -6 3 -2 6 11 6 12 1 22 -3 22 -8z m58 -8 c2 -8 -6 -13 -20 -14 -17
-1 -18 -3 -5 -6 9 -2 15 -8 12 -13 -3 -5 -12 -7 -20 -3 -16 5 -20 34 -8 47 10
10 36 3 41 -11z m82 8 c0 -12 -29 -23 -41 -15 -18 10 -9 24 16 24 14 0 25 -4
25 -9z"/>
<path d="M2630 4343 c0 -5 11 -13 25 -20 29 -13 34 1 6 17 -23 12 -31 13 -31
3z"/>
<path d="M2440 4315 c0 -8 7 -15 15 -15 8 0 15 7 15 15 0 8 -7 15 -15 15 -8 0
-15 -7 -15 -15z"/>
<path d="M3057 4424 c-4 -4 -7 -54 -7 -111 l0 -103 213 2 212 3 0 105 0 105
-206 3 c-113 1 -208 -1 -212 -4z m113 -73 c0 -5 -8 -8 -17 -7 -12 0 -19 -7
-21 -21 -2 -16 2 -23 13 -23 9 0 13 5 10 10 -3 6 -2 10 4 10 17 0 21 -17 7
-29 -29 -24 -64 17 -44 53 9 17 48 23 48 7z m68 -3 c9 -9 12 -9 12 0 0 22 18
12 28 -15 l10 -28 11 28 c15 38 31 34 31 -8 0 -19 -4 -35 -10 -35 -5 0 -10 6
-10 13 0 8 -4 7 -10 -3 -9 -13 -12 -12 -22 5 -11 19 -11 19 -19 0 -7 -19 -8
-18 -8 3 -1 20 -3 21 -23 10 -13 -7 -26 -17 -30 -23 -4 -5 -8 7 -8 28 0 29 4
37 18 37 10 0 23 -5 30 -12z m172 -17 c0 -15 -16 -22 -34 -15 -25 9 -19 24 9
24 14 0 25 -4 25 -9z"/>
<path d="M3200 4334 c0 -9 5 -14 12 -12 18 6 21 28 4 28 -9 0 -16 -7 -16 -16z"/>
<path d="M1867 4023 c-4 -3 -7 -53 -7 -110 l0 -103 320 0 321 0 -3 108 -3 107
-311 3 c-171 1 -313 -1 -317 -5z m483 -104 c0 -36 -2 -40 -22 -37 -29 4 -35
34 -11 58 27 28 33 24 33 -21z m-374 4 c7 -27 7 -27 16 -4 5 14 14 21 25 19
26 -5 28 -37 3 -60 l-22 -20 -14 21 c-17 23 -44 28 -45 9 0 -8 -2 -9 -5 -2 -6
15 13 64 26 64 5 0 13 -12 16 -27z m96 -8 c2 -22 0 -34 -6 -32 -14 4 -21 67
-8 67 6 0 12 -16 14 -35z m78 6 c0 -20 6 -31 18 -35 10 -3 6 -4 -8 -3 -20 2
-26 8 -28 35 -2 18 1 32 7 32 6 0 11 -13 11 -29z m85 -1 c4 -11 10 -18 15 -15
5 3 11 -1 13 -7 3 -7 6 -3 6 10 1 13 -3 20 -9 17 -5 -3 -10 -1 -10 5 0 24 35
4 38 -22 3 -25 1 -26 -43 -26 -51 1 -75 19 -55 43 17 21 37 19 45 -5z m185 5
c-10 -12 -16 -13 -26 -4 -20 16 -18 19 12 19 22 0 25 -2 14 -15z"/>
<path d="M2314 3919 c-3 -6 -1 -16 5 -22 8 -8 11 -5 11 11 0 24 -5 28 -16 11z"/>
<path d="M1950 3920 c0 -5 5 -10 11 -10 5 0 7 5 4 10 -3 6 -8 10 -11 10 -2 0
-4 -4 -4 -10z"/>
<path d="M2010 3911 c0 -12 5 -21 10 -21 6 0 10 6 10 14 0 8 -4 18 -10 21 -5
3 -10 -3 -10 -14z"/>
<path d="M2204 3917 c-8 -21 2 -35 16 -21 5 5 6 15 0 24 -8 12 -10 12 -16 -3z"/>
<path d="M2604 4017 c-3 -8 -3 -56 -2 -108 l3 -94 300 0 300 0 3 94 c2 60 -1
98 -9 107 -17 20 -587 21 -595 1z m316 -97 c0 -22 -4 -40 -10 -40 -5 0 -10 18
-10 40 0 22 5 40 10 40 6 0 10 -18 10 -40z m70 30 c0 -5 -8 -10 -17 -10 -16
-1 -16 -2 -2 -13 14 -11 14 -14 -3 -31 -18 -19 -18 -19 -18 16 0 19 3 38 7 41
10 11 33 8 33 -3z m-271 -31 c14 -41 14 -44 -4 -29 -12 10 -18 10 -30 0 -18
-15 -19 -3 -5 34 13 35 26 33 39 -5z m319 -32 c12 -3 10 -5 -5 -6 -20 -1 -23
3 -21 37 1 36 1 36 5 5 3 -19 11 -34 21 -36z m-262 42 c5 -8 9 -8 14 1 13 21
50 2 50 -26 0 -13 -4 -24 -10 -24 -5 0 -10 12 -10 26 0 30 -19 22 -21 -9 -1
-17 -2 -18 -6 -4 -5 19 -5 19 -29 10 -16 -6 -16 -7 2 -14 18 -7 18 -8 -2 -8
-26 -1 -39 26 -23 45 14 17 25 18 35 3z m112 -22 c3 -22 -1 -27 -17 -27 -12 0
-21 7 -21 15 0 8 5 15 11 15 5 0 7 -4 4 -10 -3 -5 -2 -10 4 -10 5 0 9 9 8 20
-1 13 -6 19 -15 15 -7 -3 -10 0 -7 6 11 17 30 4 33 -24z m240 21 c-3 -7 -11
-13 -18 -13 -7 0 -15 6 -17 13 -3 7 4 12 17 12 13 0 20 -5 18 -12z"/>
<path d="M2690 3920 c0 -5 5 -10 11 -10 5 0 7 5 4 10 -3 6 -8 10 -11 10 -2 0
-4 -4 -4 -10z"/>
<path d="M2750 3919 c0 -5 5 -7 10 -4 6 3 10 8 10 11 0 2 -4 4 -10 4 -5 0 -10
-5 -10 -11z"/>
<path d="M2314 3677 c-2 -7 -3 -82 -2 -167 l3 -155 215 0 215 0 0 165 0 165
-213 3 c-168 2 -214 0 -218 -11z m106 -47 c0 -5 -7 -10 -15 -10 -18 0 -20 -20
-2 -21 10 0 10 -2 0 -6 -7 -2 -13 -11 -13 -19 0 -8 -4 -14 -10 -14 -11 0 -14
63 -3 73 10 11 43 8 43 -3z m132 -35 c-2 -14 0 -25 6 -25 6 0 13 12 15 28 4
25 4 25 6 -5 1 -27 -3 -33 -19 -33 -13 0 -20 7 -20 19 0 10 -9 21 -20 24 -18
5 -23 -1 -18 -20 1 -5 9 -6 18 -5 12 3 12 1 3 -8 -18 -19 -45 -4 -41 22 2 16
10 23 25 23 12 0 25 4 29 8 13 12 21 -2 16 -28z m-83 -7 c-2 -31 -2 -31 -6 -5
-5 30 -23 27 -23 -4 0 -10 -4 -19 -10 -19 -11 0 -14 43 -3 53 3 4 15 7 25 7
14 0 18 -7 17 -32z m169 20 c9 -9 12 -9 12 1 0 7 9 11 23 9 16 -2 23 -11 25
-30 2 -16 -1 -28 -7 -28 -6 0 -11 9 -11 20 0 28 -20 25 -21 -2 0 -13 -3 -17
-6 -10 -4 10 -8 10 -19 1 -18 -15 -44 -4 -44 19 0 32 25 43 48 20z m-188 -159
c0 -19 5 -29 15 -29 8 0 15 9 15 20 0 25 25 37 44 21 8 -7 17 -8 20 -3 8 13
85 12 93 -1 4 -7 -1 -8 -13 -4 -18 7 -18 7 0 -7 10 -8 15 -19 12 -24 -7 -12
-96 -13 -96 0 0 6 8 7 18 3 13 -5 14 -4 5 6 -10 10 -16 9 -30 -3 -10 -8 -37
-16 -60 -17 l-43 -1 0 41 c0 24 4 38 10 34 6 -3 10 -19 10 -36z"/>
<path d="M2605 3600 c-4 -6 -3 -16 3 -22 6 -6 12 -6 17 2 4 6 3 16 -3 22 -6 6
-12 6 -17 -2z"/>
<path d="M2500 3440 c0 -19 3 -21 12 -12 9 9 9 15 0 24 -9 9 -12 7 -12 -12z"/>
<path d="M2560 3456 c0 -3 14 -12 30 -21 17 -9 30 -13 30 -11 0 3 -13 12 -30
21 -16 9 -30 13 -30 11z"/>
<path d="M1795 3148 c-3 -13 -4 -93 -3 -178 l3 -155 353 -3 352 -2 0 180 0
180 -350 0 -350 0 -5 -22z m509 -83 c1 -19 -2 -35 -6 -35 -5 0 -8 19 -8 42 0
49 13 44 14 -7z m-260 26 c3 -5 15 -7 25 -4 10 3 22 0 26 -7 5 -8 10 -8 21 1
10 8 18 8 27 0 10 -8 17 -7 25 1 9 9 15 9 24 0 9 -9 8 -12 -5 -12 -9 0 -17 -7
-17 -16 0 -10 6 -14 15 -10 8 3 15 1 15 -4 0 -18 -35 -10 -48 10 -7 11 -18 20
-25 20 -8 0 -7 -4 3 -10 13 -9 13 -10 0 -11 -10 0 -8 -3 5 -9 15 -6 9 -8 -23
-7 -28 1 -46 -4 -52 -13 -8 -13 -10 -13 -10 1 0 12 -7 15 -24 12 -13 -3 -26 0
-30 5 -4 6 2 8 14 5 11 -3 20 0 20 6 0 6 -6 11 -14 11 -18 0 -29 16 -21 30 8
12 42 13 49 1z m234 -34 c3 -21 -1 -27 -17 -27 -25 0 -37 18 -17 26 9 3 16 10
16 16 0 5 -5 6 -12 2 -7 -4 -8 -3 -4 5 12 19 31 7 34 -22z m-48 11 c0 -7 -5
-20 -10 -28 -8 -12 -10 -9 -10 13 0 15 5 27 10 27 6 0 10 -6 10 -12z m-174
-149 c1 -16 -2 -32 -7 -35 -5 -3 -9 14 -9 37 0 47 14 45 16 -2z m-144 4 c11
-27 12 -27 15 -5 4 23 43 33 43 11 0 -8 5 -8 15 1 19 16 45 6 45 -17 0 -17
-32 -53 -46 -53 -4 0 -4 8 -2 18 5 17 2 17 -18 8 -13 -6 -24 -15 -24 -20 0 -5
-9 2 -20 15 -18 20 -24 21 -40 11 -23 -14 -23 -14 -9 27 13 38 26 39 41 4z
m165 -30 c-3 -10 -5 -2 -5 17 0 19 2 27 5 18 2 -10 2 -26 0 -35z m53 36 c0 -8
5 -7 16 2 12 10 20 10 34 1 12 -7 21 -8 25 -2 8 13 35 13 35 -1 0 -5 -5 -7
-10 -4 -10 6 -26 -22 -18 -31 10 -9 36 8 41 27 6 21 32 26 43 7 4 -6 -1 -17
-10 -24 -13 -9 -14 -13 -4 -16 7 -3 -6 -5 -30 -5 -23 0 -45 4 -49 9 -3 6 -9 5
-14 -3 -6 -10 -9 -8 -9 8 0 12 -4 25 -10 28 -6 3 -10 -4 -10 -18 0 -20 -5 -24
-35 -25 -25 -1 -35 3 -35 13 0 8 5 15 11 15 5 0 7 -4 4 -10 -3 -5 -1 -10 4
-10 6 0 11 9 11 20 0 14 -5 18 -17 13 -11 -4 -14 -3 -9 5 9 15 36 16 36 1z
m216 -1 c5 -8 2 -9 -9 -5 -22 8 -22 -2 1 -19 16 -12 16 -13 -1 -20 -11 -4 -23
-1 -30 6 -10 10 -8 11 8 6 16 -6 18 -5 8 5 -7 7 -13 19 -13 26 0 16 26 17 36
1z m74 -3 c-10 -12 -16 -13 -26 -4 -20 16 -18 19 12 19 22 0 25 -2 14 -15z"/>
<path d="M2014 3075 c22 -17 36 -19 36 -6 0 10 -24 21 -43 21 -7 0 -3 -7 7
-15z"/>
<path d="M2060 3054 c0 -17 22 -14 28 4 2 7 -3 12 -12 12 -9 0 -16 -7 -16 -16z"/>
<path d="M1945 2917 c-4 -10 -5 -21 -1 -24 10 -10 18 4 13 24 -4 17 -4 17 -12
0z"/>
<path d="M2000 2911 c0 -12 5 -21 10 -21 6 0 10 6 10 14 0 8 -4 18 -10 21 -5
3 -10 -3 -10 -14z"/>
<path d="M2604 3157 c-2 -7 -3 -87 -2 -177 l3 -165 330 0 330 0 0 175 0 175
-328 3 c-262 2 -329 0 -333 -11z m196 -68 c0 -6 7 -9 15 -5 12 4 14 0 9 -22
-9 -35 -14 -41 -14 -15 0 19 -3 20 -25 10 -14 -7 -25 -15 -25 -19 0 -5 -4 -8
-8 -8 -5 0 -9 16 -10 35 -1 32 1 35 28 35 17 0 30 -5 30 -11z m76 -10 c4 -8 9
-8 17 0 14 14 37 14 37 0 0 -5 -4 -7 -10 -4 -5 3 -10 2 -10 -4 0 -5 -15 -13
-32 -17 -29 -6 -30 -8 -13 -15 19 -7 19 -8 -2 -8 -18 -1 -23 5 -23 22 0 35 21
50 36 26z m134 -16 c0 -32 18 -28 23 5 4 26 4 26 6 -4 l1 -32 -69 2 c-38 0
-73 5 -77 9 -5 4 0 5 10 1 15 -6 17 -4 11 6 -6 10 -4 12 8 7 10 -4 25 -10 35
-13 16 -5 16 -5 0 9 -22 17 -7 35 28 33 18 -1 24 -7 24 -23z m70 17 c0 -5 -4
-10 -10 -10 -5 0 -11 -10 -11 -22 -1 -18 -2 -19 -6 -5 -3 10 -2 25 1 33 6 16
26 19 26 4z m48 -13 c2 -11 -3 -17 -15 -18 -16 0 -16 -1 2 -9 19 -8 19 -9 -3
-9 -27 -1 -39 23 -22 44 16 19 34 15 38 -8z m-408 -122 c11 -13 9 -15 -11 -13
-18 2 -24 -2 -24 -17 0 -15 6 -19 25 -17 18 2 22 0 13 -9 -30 -30 -71 22 -43
57 16 18 24 18 40 -1z m200 -30 c0 -19 -4 -35 -10 -35 -5 0 -10 16 -10 35 0
19 5 35 10 35 6 0 10 -16 10 -35z m162 -21 c10 -1 15 3 12 8 -4 6 -1 9 5 7 23
-8 6 -24 -24 -24 -25 0 -30 4 -31 25 -2 38 10 49 16 15 3 -19 11 -30 22 -31z
m-304 34 c9 -9 12 -9 12 0 0 19 40 14 47 -5 7 -19 22 -33 37 -33 6 0 1 6 -10
14 -15 12 -17 17 -6 27 10 11 14 11 25 0 10 -10 8 -11 -8 -6 -19 6 -19 6 -2
-8 26 -22 21 -38 -13 -35 -21 2 -30 8 -30 20 0 9 -4 20 -10 23 -6 4 -10 -5
-10 -19 0 -26 -19 -38 -21 -13 0 10 -2 10 -6 0 -7 -19 -40 -16 -47 3 -6 16 9
44 23 44 4 0 12 -5 19 -12z m192 1 c0 -8 5 -8 15 1 22 19 45 5 44 -27 -1 -21
-3 -23 -6 -8 -8 33 -23 42 -23 13 0 -23 -4 -26 -32 -25 -28 2 -55 27 -28 27 6
0 8 -4 5 -10 -3 -5 -1 -10 4 -10 6 0 11 9 11 20 0 14 -5 18 -17 13 -11 -4 -14
-3 -9 5 9 15 36 16 36 1z m146 -1 c5 -8 2 -9 -9 -5 -10 3 -17 2 -17 -4 0 -6
-5 -7 -10 -4 -6 4 -8 11 -5 16 8 13 32 11 41 -3z m84 3 c0 -12 -29 -23 -41
-15 -18 10 -9 24 16 24 14 0 25 -4 25 -9z"/>
<path d="M2760 3074 c0 -9 5 -14 12 -12 18 6 21 28 4 28 -9 0 -16 -7 -16 -16z"/>
<path d="M2855 3070 c-3 -5 -1 -10 4 -10 6 0 11 5 11 10 0 6 -2 10 -4 10 -3 0
-8 -4 -11 -10z"/>
<path d="M2960 3071 c0 -5 7 -11 15 -15 8 -3 15 -1 15 3 0 5 -7 11 -15 15 -8
3 -15 1 -15 -3z"/>
<path d="M2750 2911 c0 -12 5 -21 10 -21 6 0 10 6 10 14 0 8 -4 18 -10 21 -5
3 -10 -3 -10 -14z"/>
<path d="M2231 2686 c-8 -9 -11 -47 -9 -107 l3 -94 305 0 305 0 0 105 0 105
-296 3 c-246 2 -298 0 -308 -12z m97 -63 c-10 -2 -18 -7 -18 -10 0 -3 8 -12
18 -19 16 -13 16 -13 0 -14 -10 0 -18 -4 -18 -10 0 -5 7 -7 15 -4 8 4 15 1 15
-6 0 -6 -10 -10 -22 -8 -41 6 -37 79 4 77 17 -1 18 -2 6 -6z m29 -45 c-2 -13
-4 -5 -4 17 -1 22 1 32 4 23 2 -10 2 -28 0 -40z m189 8 c0 -19 -4 -32 -8 -30
-4 3 -8 18 -8 35 0 16 4 29 8 29 4 0 8 -15 8 -34z m-106 10 c0 -6 4 -4 10 4
16 25 22 3 7 -26 -14 -26 -15 -27 -21 -7 -5 15 -13 19 -26 16 -11 -3 -20 -9
-20 -14 0 -5 8 -6 18 -2 14 5 15 3 4 -8 -10 -11 -15 -11 -28 3 -24 24 -11 47
25 46 17 -1 31 -6 31 -12z m78 -14 c4 -26 -23 -41 -41 -23 -9 10 -8 15 6 26
14 10 15 14 5 19 -7 3 -4 5 7 3 12 -1 21 -11 23 -25z m49 -9 c-3 -10 -5 -4 -5
12 0 17 2 24 5 18 2 -7 2 -21 0 -30z m63 25 c0 -10 3 -10 9 0 13 21 46 10 49
-16 2 -12 -1 -22 -7 -22 -6 0 -11 9 -11 21 0 11 -4 18 -10 14 -5 -3 -7 -12 -4
-19 3 -8 1 -17 -5 -21 -6 -3 -11 -1 -11 6 0 8 -4 8 -16 -1 -12 -11 -18 -10
-31 3 -9 8 -13 23 -10 31 7 19 47 22 47 4z m130 -3 c-10 -12 -16 -13 -26 -4
-20 16 -18 19 12 19 22 0 25 -2 14 -15z"/>
<path d="M2600 2585 c0 -8 5 -15 10 -15 6 0 10 7 10 15 0 8 -4 15 -10 15 -5 0
-10 -7 -10 -15z"/>
<path d="M1654 2357 c-2 -7 -3 -89 -2 -182 l3 -170 300 0 300 0 0 180 0 180
-298 3 c-237 2 -299 0 -303 -11z m311 -97 c8 0 15 9 15 20 0 15 7 20 26 20 23
0 25 -3 20 -24 -3 -14 -2 -28 4 -31 5 -3 10 3 10 14 0 12 5 21 10 21 6 0 10
-11 10 -25 0 -18 -5 -25 -20 -25 -11 0 -23 7 -27 16 -6 15 -8 15 -20 -2 -7
-10 -13 -12 -13 -6 0 16 -37 15 -43 0 -3 -7 -6 -3 -6 10 -1 28 -21 30 -21 1 0
-11 -4 -17 -10 -14 -5 3 -10 0 -10 -8 0 -19 -23 -28 -41 -16 -11 7 -10 9 6 9
18 1 19 1 3 11 -22 12 -23 48 -3 55 8 4 23 0 32 -7 15 -12 16 -12 11 3 -11 27
4 29 28 3 13 -14 30 -25 39 -25z m-189 10 c8 0 14 7 14 15 0 8 5 15 10 15 6 0
10 -16 10 -35 0 -19 -4 -35 -10 -35 -5 0 -10 7 -10 15 0 21 -28 19 -33 -2 -3
-10 -5 0 -5 22 0 22 2 32 5 23 2 -10 11 -18 19 -18z m330 8 c5 -8 2 -9 -9 -5
-10 3 -17 2 -17 -2 0 -5 7 -11 15 -15 22 -8 19 -26 -4 -26 -16 0 -19 6 -17 28
2 15 4 28 5 30 3 7 21 1 27 -10z m54 -4 c11 -13 10 -16 -10 -21 -22 -6 -23 -7
-4 -14 18 -7 17 -8 -3 -8 -18 -1 -23 5 -23 22 0 38 18 48 40 21z m-333 -31
c-3 -10 -5 -4 -5 12 0 17 2 24 5 18 2 -7 2 -21 0 -30z m199 -98 c4 -10 14 -13
30 -9 21 6 24 3 24 -25 0 -24 -4 -31 -20 -31 -11 0 -20 7 -20 15 0 8 5 15 11
15 5 0 7 -4 4 -10 -3 -5 -1 -10 4 -10 6 0 11 9 11 20 0 11 -3 20 -6 20 -10 0
-69 -34 -76 -45 -4 -5 -8 7 -8 27 0 32 8 45 33 47 4 1 10 -6 13 -14z m147 -16
c9 7 12 1 13 -20 1 -23 -2 -27 -12 -18 -8 6 -14 8 -14 3 0 -12 -58 -15 -65 -3
-10 14 5 49 20 49 8 0 17 -5 21 -12 5 -8 2 -9 -9 -5 -13 5 -17 1 -17 -14 0
-15 5 -19 16 -15 9 3 18 6 20 6 2 0 5 15 5 33 1 24 3 26 6 9 3 -16 8 -20 16
-13z m-433 6 c0 -21 28 -19 33 3 3 9 5 -1 5 -23 0 -22 -2 -32 -5 -22 -5 21
-33 23 -33 2 0 -8 -4 -15 -10 -15 -5 0 -10 16 -10 35 0 19 5 35 10 35 6 0 10
-7 10 -15z m95 -25 c0 -29 -32 -41 -41 -16 -9 24 4 48 23 44 12 -2 18 -12 18
-28z m50 20 c4 -6 -1 -7 -12 -4 -16 5 -16 4 2 -10 18 -15 20 -15 27 5 5 12 15
19 25 17 26 -5 28 -29 2 -35 -21 -6 -21 -7 -4 -13 12 -4 2 -7 -27 -7 -45 -1
-47 0 -43 25 1 15 3 28 4 30 3 6 20 1 26 -8z"/>
<path d="M1990 2280 c0 -5 7 -10 15 -10 8 0 15 5 15 10 0 6 -7 10 -15 10 -8 0
-15 -4 -15 -10z"/>
<path d="M1852 2259 c2 -6 8 -10 13 -10 5 0 11 4 13 10 2 6 -4 11 -13 11 -9 0
-15 -5 -13 -11z"/>
<path d="M2135 2270 c-3 -5 -1 -10 4 -10 6 0 11 5 11 10 0 6 -2 10 -4 10 -3 0
-8 -4 -11 -10z"/>
<path d="M1990 2130 c0 -5 7 -10 15 -10 8 0 15 5 15 10 0 6 -7 10 -15 10 -8 0
-15 -4 -15 -10z"/>
<path d="M1805 2120 c-4 -6 -3 -16 3 -22 6 -6 12 -6 17 2 4 6 3 16 -3 22 -6 6
-12 6 -17 -2z"/>
<path d="M2935 2357 c-3 -7 -4 -89 -3 -182 l3 -170 250 0 250 0 0 180 0 180
-248 3 c-196 2 -249 0 -252 -11z m271 -76 c11 9 10 3 -3 -19 l-18 -32 -7 32
c-3 18 -3 37 0 43 4 5 8 0 10 -13 3 -19 6 -21 18 -11z m-76 -41 c11 0 20 9 23
23 4 19 4 18 6 -5 1 -25 -3 -28 -29 -28 -28 0 -30 2 -28 38 1 36 1 36 5 5 3
-24 9 -33 23 -33z m138 27 c2 -11 -3 -17 -15 -18 -16 0 -16 -1 2 -9 16 -6 12
-8 -17 -8 -21 1 -38 5 -38 10 0 5 5 6 10 3 6 -3 10 0 10 7 0 18 21 39 35 35 5
-2 11 -11 13 -20z m-146 -154 c-3 -21 -7 -32 -9 -25 -4 10 -8 10 -19 1 -29
-24 -56 7 -34 41 8 12 13 13 30 2 18 -11 20 -10 20 9 0 11 4 18 8 15 4 -3 6
-22 4 -43z m-112 17 c0 -27 16 -25 23 2 4 12 9 20 12 17 7 -8 -15 -69 -25 -69
-4 0 -13 14 -19 31 -13 39 -13 39 -1 39 6 0 10 -9 10 -20z m150 -40 c5 0 11
12 13 28 4 25 4 25 6 -5 1 -26 -3 -33 -18 -33 -18 0 -35 42 -22 56 3 3 7 -6 9
-20 2 -14 7 -26 12 -26z m106 38 c3 -5 12 -4 20 3 11 9 17 9 28 0 10 -8 16 -9
21 -1 8 13 35 13 35 -1 0 -5 -4 -7 -10 -4 -5 3 -10 2 -10 -4 0 -5 -15 -13 -32
-17 -29 -6 -30 -8 -13 -15 16 -6 17 -8 3 -8 -9 -1 -20 4 -24 10 -4 8 -9 7 -15
-2 -6 -10 -9 -8 -9 8 0 12 -4 25 -10 28 -6 4 -10 -5 -10 -19 0 -14 -4 -26 -10
-26 -5 0 -10 12 -10 27 0 29 -15 22 -23 -12 -3 -13 -5 -9 -6 12 -1 31 1 32 34
31 20 -1 38 -5 41 -10z m109 -28 c9 -15 -24 -25 -38 -11 -9 9 -8 11 7 5 13 -5
17 -4 12 4 -4 7 -3 12 3 12 5 0 13 -5 16 -10z"/>
<path d="M3240 2270 c0 -5 5 -10 11 -10 5 0 7 5 4 10 -3 6 -8 10 -11 10 -2 0
-4 -4 -4 -10z"/>
<path d="M3070 2111 c0 -12 5 -21 10 -21 6 0 10 6 10 14 0 8 -4 18 -10 21 -5
3 -10 -3 -10 -14z"/>
<path d="M2362 2288 c-16 -16 -16 -190 0 -206 14 -14 424 -17 446 -4 9 6 12
36 10 113 l-3 104 -220 3 c-163 2 -224 -1 -233 -10z m96 -65 c-10 -2 -18 -8
-18 -13 0 -13 34 -22 38 -11 5 16 40 13 50 -4 5 -10 15 -13 27 -9 18 7 18 8
-1 15 -17 7 -17 8 4 8 18 1 22 -4 22 -29 0 -31 -17 -39 -38 -18 -8 8 -15 8
-28 -3 -14 -11 -18 -11 -29 4 -16 22 -42 22 -48 0 -3 -10 -5 1 -6 25 -1 38 1
42 22 41 16 -1 18 -2 5 -6z m211 -45 c-2 -31 -2 -31 -6 -5 -5 31 -23 37 -23 7
0 -11 -4 -20 -10 -20 -5 0 -10 9 -10 21 0 12 -4 17 -11 14 -6 -4 -8 -13 -5
-21 3 -8 1 -14 -4 -14 -6 0 -10 11 -10 25 0 23 4 25 40 25 39 0 40 -1 39 -32z
m81 23 c0 -19 -22 -23 -38 -7 -15 15 -14 16 11 16 15 0 27 -4 27 -9z"/>
<path d="M2490 2186 c0 -9 7 -16 16 -16 9 0 14 5 12 12 -6 18 -28 21 -28 4z"/>
<path d="M2550 2169 c0 -5 5 -7 10 -4 6 3 10 8 10 11 0 2 -4 4 -10 4 -5 0 -10
-5 -10 -11z"/>
<path d="M0 1755 l0 -25 2560 0 2560 0 0 25 0 25 -2560 0 -2560 0 0 -25z"/>
<path d="M2410 1532 c0 -23 3 -42 8 -42 9 0 8 68 -2 77 -3 3 -6 -12 -6 -35z"/>
<path d="M2442 1529 c4 -42 23 -49 22 -7 0 18 -6 34 -13 36 -9 3 -11 -6 -9
-29z"/>
<path d="M2487 1544 c-12 -12 -8 -41 7 -53 10 -8 16 -9 21 -1 3 5 -2 10 -12
11 -14 0 -13 2 5 10 13 5 22 15 20 21 -5 15 -31 22 -41 12z"/>
<path d="M2540 1520 c0 -17 5 -30 10 -30 6 0 10 12 10 26 0 15 4 23 11 18 6
-3 9 -15 6 -25 -3 -11 -1 -19 4 -19 5 0 9 9 9 20 0 11 5 20 10 20 6 0 10 -9
10 -20 0 -11 5 -20 10 -20 12 0 13 30 2 45 -4 6 -24 11 -44 12 -36 3 -38 1
-38 -27z"/>
<path d="M2649 1548 c-1 -2 -3 -15 -4 -30 -4 -30 17 -44 35 -23 10 12 9 16 -4
21 -9 3 -16 10 -16 15 0 4 7 5 17 2 11 -4 14 -3 9 5 -6 10 -34 17 -37 10z"/>
<path d="M0 1300 l0 -30 2560 0 2560 0 0 30 0 30 -2560 0 -2560 0 0 -30z"/>
<path d="M1946 1134 c-11 -29 -7 -159 6 -172 18 -18 212 -16 227 2 8 9 11 45
9 98 l-3 83 -116 3 c-100 2 -118 0 -123 -14z m94 -74 c10 0 21 8 23 18 3 9 5
0 6 -20 0 -21 -4 -38 -10 -38 -5 0 -8 4 -4 9 11 19 -18 24 -32 6 -12 -17 -13
-15 -12 21 1 21 3 31 6 22 2 -10 13 -18 23 -18z m60 1 c0 -20 6 -31 18 -34 10
-3 6 -5 -10 -6 -25 -1 -28 2 -28 34 0 19 5 35 10 35 6 0 10 -13 10 -29z"/>
<path d="M2367 1143 c-4 -3 -7 -46 -7 -94 0 -70 3 -88 16 -93 30 -11 219 -7
232 6 12 12 17 143 6 172 -5 13 -26 16 -123 16 -65 0 -121 -3 -124 -7z m73
-68 c0 -21 28 -19 32 3 3 9 6 0 9 -20 3 -21 1 -38 -3 -38 -4 0 -8 7 -8 15 0 8
-7 15 -15 15 -8 0 -15 -7 -15 -15 0 -8 -4 -15 -9 -15 -5 0 -9 16 -9 35 0 19 4
35 9 35 5 0 9 -7 9 -15z m105 -20 c0 -23 -5 -31 -22 -33 -20 -3 -23 1 -23 33
0 32 3 36 23 33 17 -2 22 -10 22 -33z"/>
<path d="M2510 1055 c0 -17 5 -25 13 -22 6 2 12 12 12 22 0 10 -6 20 -12 23
-8 2 -13 -6 -13 -23z"/>
<path d="M2792 1138 c-16 -16 -16 -160 0 -176 14 -14 295 -17 316 -4 9 6 12
33 10 98 l-3 89 -155 3 c-113 2 -159 -1 -168 -10z m108 -57 c0 -5 -8 -8 -17
-7 -12 0 -19 -7 -21 -21 -2 -16 2 -23 13 -23 9 0 13 5 10 10 -3 6 1 10 10 10
9 0 15 -6 13 -12 -3 -7 -15 -13 -29 -13 -24 0 -36 23 -25 51 6 15 46 20 46 5z
m71 -3 c0 -10 2 -10 6 0 7 18 21 15 28 -8 3 -11 10 -20 15 -20 4 0 10 9 13 20
8 33 27 23 27 -15 0 -19 -4 -35 -10 -35 -5 0 -10 6 -10 13 0 8 -4 7 -10 -3 -9
-13 -12 -12 -22 5 -11 19 -11 19 -19 0 -7 -19 -8 -18 -8 3 -1 20 -3 21 -23 10
-13 -7 -26 -17 -30 -23 -4 -5 -8 7 -8 28 0 33 3 37 25 37 14 0 25 -6 26 -12z"/>
<path d="M2930 1064 c0 -9 5 -14 12 -12 18 6 21 28 4 28 -9 0 -16 -7 -16 -16z"/>
<path d="M2298 1088 c-2 -7 -1 -26 3 -43 6 -28 7 -28 9 -5 1 14 3 33 5 43 4
19 -11 24 -17 5z"/>
<path d="M2718 1089 c-7 -21 4 -69 16 -69 14 0 13 57 -1 71 -8 8 -12 7 -15 -2z"/>
<path d="M2234 1066 c-9 -24 4 -48 23 -44 12 2 18 12 18 28 0 29 -32 41 -41
16z m28 -28 c-15 -15 -26 -4 -18 18 5 13 9 15 18 6 9 -9 9 -15 0 -24z"/>
<path d="M2663 1067 c3 -9 1 -17 -5 -19 -18 -6 1 -28 23 -28 16 0 20 6 17 27
-2 18 -10 29 -22 31 -14 3 -17 0 -13 -11z m27 -27 c0 -5 -4 -10 -10 -10 -5 0
-10 5 -10 10 0 6 5 10 10 10 6 0 10 -4 10 -10z"/>
<path d="M2864 757 c-3 -8 -4 -49 -2 -93 l3 -79 115 0 115 0 0 90 0 90 -113 3
c-88 2 -114 0 -118 -11z m106 -47 c0 -5 -7 -10 -15 -10 -21 0 -19 -20 3 -21
16 -1 16 -2 0 -6 -10 -2 -18 -8 -18 -13 0 -5 8 -11 18 -13 13 -4 11 -5 -5 -6
-20 -1 -23 4 -23 39 0 33 3 40 20 40 11 0 20 -4 20 -10z m61 -6 c10 -13 8 -19
-14 -40 -34 -31 -37 -30 -37 9 0 49 24 64 51 31z"/>
<path d="M3000 690 c0 -5 5 -10 10 -10 6 0 10 5 10 10 0 6 -4 10 -10 10 -5 0
-10 -4 -10 -10z"/>
<path d="M2000 680 c0 -37 2 -40 28 -39 23 2 24 2 5 6 -26 5 -31 23 -8 23 8 0
15 5 15 10 0 6 -7 10 -15 10 -23 0 -18 18 8 23 19 4 18 4 -5 6 -26 1 -28 -2
-28 -39z"/>
<path d="M2370 681 c0 -23 5 -41 10 -41 6 0 10 7 10 15 0 9 9 15 21 15 34 0
21 44 -13 48 -27 3 -28 1 -28 -37z m48 11 c2 -7 -3 -12 -12 -12 -9 0 -16 7
-16 16 0 17 22 14 28 -4z"/>
<path d="M2060 668 c0 -17 3 -28 7 -24 4 4 8 14 8 22 0 18 20 18 20 0 0 -8 4
-18 8 -22 4 -4 7 7 7 24 0 27 -4 32 -25 32 -21 0 -25 -5 -25 -32z"/>
<path d="M2127 693 c-15 -15 -6 -45 15 -51 21 -5 21 -6 2 -13 -18 -7 -17 -8 4
-8 19 -1 22 4 22 39 0 32 -4 40 -18 40 -10 0 -22 -3 -25 -7z m33 -23 c0 -11
-4 -20 -10 -20 -5 0 -10 9 -10 20 0 11 5 20 10 20 6 0 10 -9 10 -20z"/>
<path d="M2192 670 c0 -19 2 -27 5 -17 2 9 2 25 0 35 -3 9 -5 1 -5 -18z"/>
<path d="M2221 668 c1 -21 3 -26 6 -13 8 34 23 41 23 12 0 -15 5 -27 11 -27 6
0 9 12 7 28 -2 19 -9 28 -25 30 -20 3 -23 -1 -22 -30z"/>
<path d="M2285 690 c-11 -18 6 -50 26 -50 10 0 19 4 19 10 0 5 -7 7 -15 4 -8
-4 -15 -1 -15 5 0 6 7 11 15 11 8 0 15 7 15 15 0 17 -35 21 -45 5z"/>
<path d="M2451 668 c1 -22 3 -26 6 -13 3 11 10 26 15 33 8 9 6 12 -6 12 -12 0
-16 -9 -15 -32z"/>
<path d="M2490 685 c-10 -12 -10 -18 0 -30 14 -17 40 -20 40 -4 0 5 -4 8 -9 4
-5 -3 -12 -1 -16 5 -3 6 3 10 15 10 13 0 20 5 18 13 -7 18 -33 20 -48 2z"/>
<path d="M2550 689 c0 -7 8 -18 18 -26 16 -14 16 -14 -3 -8 -15 5 -17 3 -8 -6
13 -13 43 -6 43 10 0 5 -10 13 -22 17 -22 7 -22 7 -3 15 19 7 19 8 -2 8 -13 1
-23 -4 -23 -10z"/>
<path d="M2610 689 c0 -7 8 -18 18 -26 16 -14 16 -14 -1 -9 -11 3 -16 2 -12
-4 10 -16 35 -12 35 5 0 9 -8 19 -17 22 -15 6 -15 7 3 14 17 7 17 8 -3 8 -13
1 -23 -4 -23 -10z"/>
<path d="M2671 673 c-1 -29 2 -33 24 -33 21 0 25 5 25 30 0 17 -4 30 -10 30
-5 0 -10 -11 -10 -25 0 -34 -18 -32 -23 3 -4 25 -4 25 -6 -5z"/>
<path d="M2730 670 c0 -16 4 -30 9 -30 5 0 11 14 13 30 3 20 0 30 -9 30 -8 0
-13 -12 -13 -30z"/>
<path d="M2774 685 c-13 -32 24 -63 41 -35 3 6 -1 7 -9 4 -9 -3 -16 -1 -16 5
0 6 7 11 15 11 8 0 15 7 15 15 0 8 -9 15 -20 15 -11 0 -23 -7 -26 -15z"/>
<path d="M2314 387 c-2 -7 -3 -67 -2 -133 l3 -119 230 0 230 0 0 130 0 130
-228 3 c-182 2 -229 0 -233 -11z m152 -133 c1 -31 -1 -33 -14 -20 -14 14 -17
13 -28 -2 -12 -15 -13 -12 -14 25 0 32 4 42 18 46 25 5 36 -9 38 -49z m219 3
c0 -48 -19 -42 -23 7 -2 28 0 37 10 34 7 -3 13 -20 13 -41z m-157 10 c2 -12
-3 -17 -18 -17 -12 0 -19 -4 -15 -10 3 -5 13 -6 23 -3 13 5 15 3 5 -7 -17 -18
-43 -5 -43 23 0 13 3 27 7 31 12 12 38 2 41 -17z m57 13 c3 -5 -2 -10 -12 -10
-14 0 -15 -2 -4 -9 10 -6 19 -3 31 12 11 13 23 18 33 14 24 -9 21 -37 -4 -37
-11 0 -18 -4 -14 -10 3 -5 13 -6 23 -3 14 5 15 4 4 -8 -9 -10 -17 -11 -30 -3
-12 8 -22 8 -34 0 -13 -8 -21 -7 -30 3 -11 12 -10 13 5 8 22 -8 22 2 0 18 -9
7 -13 17 -9 23 9 15 33 16 41 2z"/>
<path d="M2425 281 c-6 -11 9 -23 19 -14 9 9 7 23 -3 23 -6 0 -12 -4 -16 -9z"/>
</g>
</svg>
